<svg xmlns="http://www.w3.org/2000/svg" viewBox="0 0 411.6 399.3"><path fill="#3bdbd1" d="M47.4 351.1c-1.3 0-1.9-.4-1.9-1.1v-31.2c0-.5.1-.9.3-1.1s.6-.3 1.1-.3H62c.4 0 .6.1.7.3.2.2.2.6.2 1.1v.8c0 .5-.1.9-.2 1.1-.1.2-.4.3-.7.3H49.7v11h11.5c.4 0 .6.1.7.3.2.2.2.6.2 1.1v.8c0 .5-.1.9-.2 1.1-.1.2-.4.3-.7.3H49.7V350c0 .7-.6 1.1-1.9 1.1h-.4zm28.9.2c-2.4 0-4.4-.7-5.8-2.1s-2.1-3.3-2.1-5.7v-16.7c0-.7.6-1.1 1.9-1.1h.2c1.3 0 1.9.4 1.9 1.1v16.3c0 1.5.4 2.6 1.2 3.5.9.8 2.1 1.2 3.6 1.2 1.1 0 2.2-.3 3.2-.9 1.1-.6 2-1.4 2.8-2.4v-17.6c0-.7.6-1.1 1.9-1.1h.2c1.3 0 1.9.4 1.9 1.1v17c0 2.1.1 3.6.3 4.6.2.9.3 1.4.3 1.5 0 .4-.3.7-.9.9-.6.2-1.2.2-1.7.2-.4 0-.8-.2-1-.7s-.4-1-.5-1.6c-.1-.5-.2-.9-.2-1.1-1 1.1-2.2 2-3.5 2.6-1 .7-2.3 1-3.7 1zm27.5 9.9c-3.1 0-5.5-.5-7.3-1.4-1.8-1-2.6-2.5-2.6-4.5 0-1.4.4-2.6 1.2-3.6.8-1 1.9-1.8 3.2-2.4v-.1c-1.3-1-1.9-2.3-1.9-3.9 0-2.1.9-3.7 2.7-5-1.3-.7-2.4-1.6-3.1-2.8-.7-1.2-1.1-2.5-1.1-4 0-2.3.8-4.1 2.5-5.6s4-2.2 7-2.2c1 0 2 .1 2.8.3h8.7c.4 0 .6.1.7.3.2.2.2.6.2 1.1v.6c0 .5-.1.9-.2 1.1s-.4.3-.7.3c-1.3 0-2.4 0-3.4-.1v.1c.8 1.2 1.2 2.6 1.2 4.1 0 2.3-.8 4.2-2.5 5.7-1.6 1.5-4 2.2-7 2.2-1.5 0-2.6.3-3.4.8s-1.2 1.3-1.2 2.5c0 .8.3 1.5.8 1.9s1.2.7 2 .9c.8.2 1.9.4 3.4.5.7.1 1.2.1 1.6.2 2.3.3 4.1.8 5.3 1.6 1.3.8 1.9 2.1 1.9 4.1 0 2.3-.9 4.1-2.8 5.4-1.7 1.2-4.4 1.9-8 1.9zm.5-23.1c1.8 0 3.2-.4 4.2-1.1 1.1-.7 1.6-1.9 1.6-3.6 0-3.1-1.9-4.7-5.8-4.7-3.8 0-5.7 1.6-5.7 4.7s1.9 4.7 5.7 4.7zm0 19.8c2.2 0 3.9-.3 4.9-.9 1.1-.6 1.6-1.5 1.6-2.7 0-1.1-.5-1.9-1.6-2.3s-2.6-.7-4.8-.9c-1.9-.2-3.2-.4-3.9-.6-2.1.9-3.2 2.2-3.2 3.9.1 2.4 2.4 3.5 7 3.5zm25-6.6c-2.4 0-4.4-.7-5.8-2.1s-2.1-3.3-2.1-5.7v-16.7c0-.7.6-1.1 1.9-1.1h.2c1.3 0 1.9.4 1.9 1.1v16.3c0 1.5.4 2.6 1.2 3.5.9.8 2.1 1.2 3.6 1.2 1.1 0 2.2-.3 3.2-.9 1.1-.6 2-1.4 2.8-2.4v-17.6c0-.7.6-1.1 1.9-1.1h.2c1.3 0 1.9.4 1.9 1.1v17c0 2.1.1 3.6.3 4.6.2.9.3 1.4.3 1.5 0 .4-.3.7-.9.9-.6.2-1.2.2-1.7.2-.4 0-.8-.2-1-.7s-.4-1-.5-1.6c-.1-.5-.2-.9-.2-1.1-1 1.1-2.2 2-3.5 2.6-1.1.7-2.4 1-3.7 1zm29.7 0c-4 0-7-1-8.9-3.1s-2.9-5.3-2.9-9.6.9-7.5 2.8-9.7 4.7-3.3 8.4-3.3c3.3 0 5.7 1.1 7.4 3.2s2.5 5.2 2.5 9.3c0 .3-.2.7-.6 1.2-.4.5-.7.8-1 .8h-15.2c.2 2.7.9 4.6 2.1 5.9 1.2 1.2 3 1.9 5.3 1.9 1.3 0 2.5-.2 3.5-.5 1-.4 1.8-.7 2.4-1 .6-.4 1-.5 1.1-.5.3 0 .7.3 1.1 1 .4.6.6 1.1.6 1.4 0 .4-.4.8-1.2 1.3s-1.9.9-3.2 1.2c-1.3.3-2.7.5-4.2.5zm5-14.7c0-5.1-1.9-7.6-5.8-7.6-4.1 0-6.4 2.5-6.7 7.6H164zm29.7 14.7c-1.9 0-3.7-.2-5.3-.7-1.6-.4-2.9-1-3.7-1.6-.6-.4-.9-.8-.9-1.2 0-.4.2-.9.6-1.6.4-.7.8-1 1.1-1 .1 0 .5.2 1 .5 1 .5 2 1 3.2 1.4s2.5.6 4.1.6c1.9 0 3.4-.5 4.5-1.5 1.2-1.1 1.8-2.4 1.8-4.1 0-1.2-.3-2.2-1-2.9-.6-.8-1.4-1.4-2.4-1.9-.9-.5-2.2-1.1-3.9-1.7-1.9-.7-3.3-1.4-4.4-2s-2-1.5-2.8-2.7-1.2-2.8-1.2-4.8c0-1.7.4-3.3 1.3-4.6.9-1.3 2.1-2.4 3.7-3.1 1.6-.8 3.5-1.2 5.6-1.2 1.1 0 2.3.2 3.6.5s2.4.7 3.1 1.2c.6.4 1 .8 1 1.2 0 .4-.2.9-.6 1.5-.4.7-.7 1-.9 1s-.4-.1-.7-.2c-.3-.2-.5-.3-.6-.3-1.6-.8-3.3-1.2-5-1.2-1.9 0-3.4.5-4.5 1.4-1.1 1-1.7 2.3-1.7 4 0 1.1.3 2 .8 2.6.6.7 1.2 1.2 1.9 1.5s2 .8 3.8 1.5c1.9.7 3.5 1.5 4.7 2.2s2.2 1.7 3.1 3c.9 1.3 1.3 2.9 1.3 4.9 0 2.9-1 5.2-2.9 6.8s-4.5 2.5-7.7 2.5zm23.6 0c-1.6 0-3-.5-4.3-1.4-1.2-1-1.9-2.7-1.9-5.2v-15.3h-2.4c-.3 0-.6-.1-.7-.3-.2-.2-.2-.6-.2-1.1v-.6c0-.5.1-.9.2-1.1.2-.2.4-.3.7-.3h2.4l.6-5c.1-.7.6-1.1 1.5-1.1h.5c1 0 1.4.4 1.4 1.1v5h4c.4 0 .6.1.7.3.2.2.2.6.2 1.1v.6c0 .5-.1.9-.2 1.1-.1.2-.4.3-.7.3h-4v14.9c0 1.3.2 2.3.7 2.8s1.1.8 1.9.8c.6 0 1.1 0 1.3-.1.3-.1.6-.1.7-.1.3 0 .5.3.7.9s.3 1 .3 1.3c.1.9-1.1 1.4-3.4 1.4zm15.6 0c-2.5 0-4.4-.6-6-1.8s-2.3-3-2.3-5.4c0-2.5.8-4.4 2.3-5.7 1.5-1.3 3.4-2.1 5.6-2.4 2.2-.4 4.9-.6 8.1-.6v-2.3c0-1.2-.4-2.1-1.2-2.9s-2.2-1.2-4-1.2c-1.4 0-2.6.2-3.7.5s-1.9.7-2.6 1c-.7.3-1.1.5-1.2.5-.3 0-.7-.3-1.1-1-.4-.6-.6-1.1-.6-1.4 0-.4.4-.9 1.2-1.3.9-.5 2-.9 3.4-1.2 1.4-.4 2.9-.5 4.4-.5 3 0 5.3.7 7 2s2.5 3.2 2.5 5.5v10.8c0 2.1.1 3.6.3 4.6.2.9.3 1.4.3 1.5 0 .4-.3.7-.9.9-.6.2-1.2.2-1.7.2-.4 0-.8-.2-1-.7s-.4-1-.5-1.6c-.1-.5-.2-.9-.2-1.1-2.2 2.4-4.9 3.6-8.1 3.6zm.2-3.5c1.6 0 2.9-.3 4-.9 1.2-.6 2.3-1.4 3.5-2.4v-5.7c-2.4 0-4.4.1-5.9.3-1.5.2-2.8.6-4 1.3-1.2.7-1.7 1.9-1.7 3.4 0 1.3.3 2.3 1 2.9.8.7 1.8 1.1 3.1 1.1zm26.8 3.5c-1.6 0-3-.5-4.3-1.4-1.2-1-1.9-2.7-1.9-5.2v-15.3h-2.4c-.3 0-.6-.1-.7-.3-.2-.2-.2-.6-.2-1.1v-.6c0-.5.1-.9.2-1.1.2-.2.4-.3.7-.3h2.4l.6-5c.1-.7.6-1.1 1.5-1.1h.5c1 0 1.4.4 1.4 1.1v5h4c.4 0 .6.1.7.3.2.2.2.6.2 1.1v.6c0 .5-.1.9-.2 1.1s-.4.3-.7.3h-4v14.9c0 1.3.2 2.3.7 2.8s1.1.8 1.9.8c.6 0 1.1 0 1.3-.1.3-.1.6-.1.7-.1.3 0 .5.3.7.9s.3 1 .3 1.3c.1.9-1.1 1.4-3.4 1.4zm19.4 0c-4 0-7-1-8.9-3.1s-2.9-5.3-2.9-9.6.9-7.5 2.8-9.7 4.7-3.3 8.4-3.3c3.3 0 5.7 1.1 7.4 3.2 1.7 2.1 2.5 5.2 2.5 9.3 0 .3-.2.7-.6 1.2s-.7.8-1 .8h-15.2c.2 2.7.9 4.6 2.1 5.9 1.2 1.2 3 1.9 5.3 1.9 1.3 0 2.5-.2 3.5-.5 1-.4 1.8-.7 2.4-1 .6-.4 1-.5 1.1-.5.3 0 .7.3 1.1 1 .4.6.6 1.1.6 1.4 0 .4-.4.8-1.2 1.3-.8.5-1.9.9-3.2 1.2-1.2.3-2.7.5-4.2.5zm5.1-14.7c0-5.1-1.9-7.6-5.8-7.6-4.1 0-6.4 2.5-6.7 7.6h12.5zm16.5 14.7c-1.6 0-3-.5-4.3-1.4-1.2-1-1.9-2.7-1.9-5.2V316c0-.7.6-1.1 1.9-1.1h.2c1.3 0 1.9.4 1.9 1.1v28.3c0 1.3.2 2.3.7 2.8s1.1.8 1.9.8c.6 0 1.1 0 1.3-.1.3-.1.6-.1.7-.1.3 0 .5.3.7.9s.3 1 .3 1.3c.1.9-1 1.4-3.4 1.4zm18.6 0c-4 0-7-1-8.9-3.1s-2.9-5.3-2.9-9.6.9-7.5 2.8-9.7 4.7-3.3 8.4-3.3c3.3 0 5.7 1.1 7.4 3.2 1.7 2.1 2.5 5.2 2.5 9.3 0 .3-.2.7-.6 1.2s-.7.8-1 .8H312c.2 2.7.9 4.6 2.1 5.9 1.2 1.2 3 1.9 5.3 1.9 1.3 0 2.5-.2 3.5-.5 1-.4 1.8-.7 2.4-1 .6-.4 1-.5 1.1-.5.3 0 .7.3 1.1 1 .4.6.6 1.1.6 1.4 0 .4-.4.8-1.2 1.3-.8.5-1.9.9-3.2 1.2-1.3.3-2.7.5-4.2.5zm5-14.7c0-5.1-1.9-7.6-5.8-7.6-4.1 0-6.4 2.5-6.7 7.6h12.5zm15.8 14.8c-1.4 0-2.7-.2-3.8-.5-1.2-.4-2.1-.8-2.8-1.2-.7-.5-1-.9-1-1.3 0-.3.2-.8.6-1.4s.8-1 1.1-1c.1 0 .4.2.9.5.5.4 1.2.7 2 1s1.7.4 2.7.4c3.1 0 4.7-1.3 4.7-3.9 0-1.1-.4-2-1.1-2.6s-2-1.2-3.7-1.7c-2.5-.7-4.3-1.6-5.2-2.7-1-1.1-1.4-2.6-1.4-4.5 0-1.3.3-2.5 1-3.6s1.6-1.9 2.8-2.4c1.2-.6 2.6-.9 4.1-.9 1.6 0 3.1.2 4.4.6s2 .9 2 1.4c0 .4-.2 1-.6 1.6s-.7 1-1 1c-.1 0-.5-.2-1.3-.6-.7-.4-1.8-.6-3.1-.6-1.2 0-2.2.3-3.1.8-.8.5-1.2 1.3-1.2 2.2 0 1.1.3 2 .9 2.6s1.5 1.2 2.9 1.6c2 .6 3.6 1.3 4.7 1.9s1.9 1.4 2.3 2.3c.5.9.7 2.1.7 3.6 0 1.4-.4 2.7-1.2 3.8-.7 1.1-1.8 2-3.1 2.7-1.3.6-2.7.9-4.2.9zm19.8 0c-1.4 0-2.7-.2-3.8-.5-1.2-.4-2.1-.8-2.8-1.2-.7-.5-1-.9-1-1.3 0-.3.2-.8.6-1.4s.8-1 1.1-1c.1 0 .4.2.9.5.5.4 1.2.7 2 1s1.7.4 2.7.4c3.1 0 4.7-1.3 4.7-3.9 0-1.1-.4-2-1.1-2.6s-2-1.2-3.7-1.7c-2.5-.7-4.3-1.6-5.2-2.7-1-1.1-1.4-2.6-1.4-4.5 0-1.3.3-2.5 1-3.6s1.6-1.9 2.8-2.4c1.2-.6 2.6-.9 4.1-.9 1.6 0 3.1.2 4.4.6s2 .9 2 1.4c0 .4-.2 1-.6 1.6s-.7 1-1 1c-.1 0-.5-.2-1.3-.6-.7-.4-1.8-.6-3.1-.6-1.2 0-2.2.3-3.1.8-.8.5-1.2 1.3-1.2 2.2 0 1.1.3 2 .9 2.6s1.5 1.2 2.9 1.6c2 .6 3.6 1.3 4.7 1.9s1.9 1.4 2.3 2.3c.5.9.7 2.1.7 3.6 0 1.4-.4 2.7-1.2 3.8-.7 1.1-1.8 2-3.1 2.7-1.2.6-2.7.9-4.2.9zM197.6 272l-3-55.5 19.3-3 3 55.5zM197.6 96.5l-3-55.5 19.3-3 3 55.5zM91.8 166.2l-3-19.3 55.5-3 3 19.3zM267.3 166.2l-3-19.3 55.5-3 3 19.3zM129.3 243.1l-11.5-15.7 40.4-36.2 11.5 15.7zM253.4 118.8l-11.5-15.7 40.4-36.2 11.5 15.7zM117.7 82.7L129.2 67l40.4 36.2-11.5 15.7zM277.9 243.1l-36.1-40.5 15.7-11.5 36.1 40.5zM186.1 198.2l-27-45.3 48.5-44.6L250 139l-12.2 51-51.7 8.2zm10-20.5l26.7-5.2 5.4-26.6-22-15-24.8 24.7 14.7 22.1z"/></svg>