<svg id="Layer_1" xmlns="http://www.w3.org/2000/svg" viewBox="0 0 270 270"><path fill="#3bdbd1" d="M0 0h270v270H0z"/><path fill="#fff" d="M126.8 251.9l-3-55.5 19.3-3 3 55.5zM126.8 76.4l-3-55.5 19.3-3 3 55.5zM21 146.1l-3-19.3 55.5-3 3 19.3zM196.5 146.1l-3-19.3 55.5-3 3 19.3zM58.5 223L47 207.2l40.4-36.1 11.5 15.7zM182.6 98.7L171.1 83l40.4-36.2L223 62.5zM46.9 62.6l11.5-15.7 40.4 36.2-11.5 15.7zM207.1 223L171 182.5l15.7-11.5 36.1 40.5zM115.3 178.1l-27-45.3 48.5-44.6 42.4 30.7-12.2 51-51.7 8.2zm10-20.5l26.7-5.2 5.4-26.6-22-15-24.8 24.7 14.7 22.1z"/></svg>