<svg xmlns="http://www.w3.org/2000/svg" viewBox="0 0 273.6 268.3"><path fill="#3bdbd1" d="M128.6 251l-3-55.5 19.3-3 3 55.5zM128.6 75.5l-3-55.5 19.3-3 3 55.5zM22.8 145.2l-3-19.3 55.5-3 3 19.3zM198.3 145.2l-3-19.3 55.5-3 3 19.3zM60.3 222.1l-11.5-15.7 40.4-36.2 11.5 15.7zM184.4 97.8l-11.5-15.7 40.4-36.2 11.5 15.7zM48.7 61.7L60.2 46l40.4 36.2-11.5 15.7zM208.9 222.1l-36.1-40.5 15.7-11.5 36.1 40.5zM117.1 177.2l-27-45.3 48.5-44.6L181 118l-12.2 51-51.7 8.2zm10-20.5l26.7-5.2 5.4-26.6-22-15-24.8 24.7 14.7 22.1z"/></svg>
