<?xml version="1.0" encoding="utf-8"?>
<!-- Generator: Adobe Illustrator 22.0.0, SVG Export Plug-In . SVG Version: 6.00 Build 0)  -->
<svg version="1.1" id="Layer_1" xmlns="http://www.w3.org/2000/svg" xmlns:xlink="http://www.w3.org/1999/xlink" x="0px" y="0px"
	 viewBox="0 0 273.6 268.3" style="enable-background:new 0 0 273.6 268.3;" xml:space="preserve">
<style type="text/css">
	.st0{fill:#3BDBD1;}
</style>
<polygon class="st0" points="128.6,251 125.6,195.5 144.9,192.5 147.9,248 "/>
<polygon class="st0" points="128.6,75.5 125.6,20 144.9,17 147.9,72.5 "/>
<polygon class="st0" points="22.8,145.2 19.8,125.9 75.3,122.9 78.3,142.2 "/>
<polygon class="st0" points="198.3,145.2 195.3,125.9 250.8,122.9 253.8,142.2 "/>
<polygon class="st0" points="60.3,222.1 48.8,206.4 89.2,170.2 100.7,185.9 "/>
<polygon class="st0" points="184.4,97.8 172.9,82.1 213.3,45.9 224.8,61.6 "/>
<polygon class="st0" points="48.7,61.7 60.2,46 100.6,82.2 89.1,97.9 "/>
<polygon class="st0" points="208.9,222.1 172.8,181.6 188.5,170.1 224.6,210.6 "/>
<path class="st0" d="M117.1,177.2l-27-45.3l48.5-44.6L181,118l-12.2,51L117.1,177.2L117.1,177.2z M127.1,156.7l26.7-5.2l5.4-26.6
	l-22-15l-24.8,24.7L127.1,156.7L127.1,156.7z"/>
</svg>
