<?xml version="1.0" encoding="utf-8"?>
<!-- Generator: Adobe Illustrator 22.0.0, SVG Export Plug-In . SVG Version: 6.00 Build 0)  -->
<svg version="1.1" id="Layer_1" xmlns="http://www.w3.org/2000/svg" xmlns:xlink="http://www.w3.org/1999/xlink" x="0px" y="0px"
	 viewBox="0 0 270 270" style="enable-background:new 0 0 270 270;" xml:space="preserve">
<style type="text/css">
	.st0{fill:#3BDBD1;}
	.st1{fill:#FFFFFF;}
</style>
<rect class="st0" width="270" height="270"/>
<polygon class="st1" points="126.8,251.9 123.8,196.4 143.1,193.4 146.1,248.9 "/>
<polygon class="st1" points="126.8,76.4 123.8,20.9 143.1,17.9 146.1,73.4 "/>
<polygon class="st1" points="21,146.1 18,126.8 73.5,123.8 76.5,143.1 "/>
<polygon class="st1" points="196.5,146.1 193.5,126.8 249,123.8 252,143.1 "/>
<polygon class="st1" points="58.5,223 47,207.2 87.4,171.1 98.9,186.8 "/>
<polygon class="st1" points="182.6,98.7 171.1,83 211.5,46.8 223,62.5 "/>
<polygon class="st1" points="46.9,62.6 58.4,46.9 98.8,83.1 87.3,98.8 "/>
<polygon class="st1" points="207.1,223 171,182.5 186.7,171 222.8,211.5 "/>
<path class="st1" d="M115.3,178.1l-27-45.3l48.5-44.6l42.4,30.7l-12.2,51L115.3,178.1L115.3,178.1z M125.3,157.6l26.7-5.2l5.4-26.6
	l-22-15l-24.8,24.7L125.3,157.6L125.3,157.6z"/>
</svg>
